<mxfile host="app.diagrams.net" modified="2021-09-13T07:36:32.996Z" agent="5.0 (Windows NT 10.0; Win64; x64) AppleWebKit/537.36 (KHTML, like Gecko) Chrome/93.0.4577.63 Safari/537.36" etag="Cy0DZH1jRtPPRoojUnW8" version="15.0.6" type="github">
  <diagram id="xMYTMke0QvDJLy9zfpDl" name="Page-1">
    <mxGraphModel dx="1021" dy="529" grid="1" gridSize="10" guides="1" tooltips="1" connect="1" arrows="1" fold="1" page="1" pageScale="1" pageWidth="827" pageHeight="1169" math="0" shadow="0">
      <root>
        <mxCell id="0" />
        <mxCell id="1" parent="0" />
        <mxCell id="NbE62dcBcv2VIbeZgHQY-3" style="edgeStyle=orthogonalEdgeStyle;rounded=0;orthogonalLoop=1;jettySize=auto;html=1;exitX=0.5;exitY=1;exitDx=0;exitDy=0;entryX=0.5;entryY=0;entryDx=0;entryDy=0;" edge="1" parent="1" source="NbE62dcBcv2VIbeZgHQY-1" target="NbE62dcBcv2VIbeZgHQY-2">
          <mxGeometry relative="1" as="geometry" />
        </mxCell>
        <mxCell id="NbE62dcBcv2VIbeZgHQY-1" value="желание купить домен" style="ellipse;whiteSpace=wrap;html=1;aspect=fixed;" vertex="1" parent="1">
          <mxGeometry x="370" y="340" width="90" height="90" as="geometry" />
        </mxCell>
        <mxCell id="NbE62dcBcv2VIbeZgHQY-4" style="edgeStyle=orthogonalEdgeStyle;rounded=0;orthogonalLoop=1;jettySize=auto;html=1;exitX=0.5;exitY=1;exitDx=0;exitDy=0;" edge="1" parent="1" source="NbE62dcBcv2VIbeZgHQY-2" target="NbE62dcBcv2VIbeZgHQY-5">
          <mxGeometry relative="1" as="geometry">
            <mxPoint x="415" y="640" as="targetPoint" />
          </mxGeometry>
        </mxCell>
        <mxCell id="NbE62dcBcv2VIbeZgHQY-2" value="ввести доменное имя" style="rounded=1;whiteSpace=wrap;html=1;" vertex="1" parent="1">
          <mxGeometry x="355" y="490" width="120" height="60" as="geometry" />
        </mxCell>
        <mxCell id="NbE62dcBcv2VIbeZgHQY-6" style="edgeStyle=orthogonalEdgeStyle;rounded=0;orthogonalLoop=1;jettySize=auto;html=1;exitX=0.5;exitY=1;exitDx=0;exitDy=0;" edge="1" parent="1" source="NbE62dcBcv2VIbeZgHQY-5" target="NbE62dcBcv2VIbeZgHQY-7">
          <mxGeometry relative="1" as="geometry">
            <mxPoint x="415.47058823529414" y="759.9999999999998" as="targetPoint" />
          </mxGeometry>
        </mxCell>
        <mxCell id="NbE62dcBcv2VIbeZgHQY-13" style="edgeStyle=orthogonalEdgeStyle;rounded=0;orthogonalLoop=1;jettySize=auto;html=1;exitX=0;exitY=0.5;exitDx=0;exitDy=0;entryX=0.5;entryY=0;entryDx=0;entryDy=0;" edge="1" parent="1" source="NbE62dcBcv2VIbeZgHQY-5" target="NbE62dcBcv2VIbeZgHQY-8">
          <mxGeometry relative="1" as="geometry" />
        </mxCell>
        <mxCell id="NbE62dcBcv2VIbeZgHQY-5" value="выбрать доменные зоны" style="rounded=1;whiteSpace=wrap;html=1;" vertex="1" parent="1">
          <mxGeometry x="355" y="610" width="120" height="60" as="geometry" />
        </mxCell>
        <mxCell id="NbE62dcBcv2VIbeZgHQY-12" style="edgeStyle=orthogonalEdgeStyle;rounded=0;orthogonalLoop=1;jettySize=auto;html=1;exitX=1;exitY=0.5;exitDx=0;exitDy=0;entryX=1;entryY=0.5;entryDx=0;entryDy=0;" edge="1" parent="1" source="NbE62dcBcv2VIbeZgHQY-7" target="NbE62dcBcv2VIbeZgHQY-5">
          <mxGeometry relative="1" as="geometry" />
        </mxCell>
        <mxCell id="NbE62dcBcv2VIbeZgHQY-7" value="домен занят" style="rounded=1;whiteSpace=wrap;html=1;" vertex="1" parent="1">
          <mxGeometry x="355.47058823529414" y="729.9999999999998" width="120" height="60" as="geometry" />
        </mxCell>
        <mxCell id="NbE62dcBcv2VIbeZgHQY-14" style="edgeStyle=orthogonalEdgeStyle;rounded=0;orthogonalLoop=1;jettySize=auto;html=1;exitX=0.5;exitY=1;exitDx=0;exitDy=0;" edge="1" parent="1" source="NbE62dcBcv2VIbeZgHQY-8">
          <mxGeometry relative="1" as="geometry">
            <mxPoint x="420" y="899.9999999999998" as="targetPoint" />
          </mxGeometry>
        </mxCell>
        <mxCell id="NbE62dcBcv2VIbeZgHQY-8" value="домен свободен" style="rounded=1;whiteSpace=wrap;html=1;" vertex="1" parent="1">
          <mxGeometry x="150" y="730" width="120" height="60" as="geometry" />
        </mxCell>
        <mxCell id="NbE62dcBcv2VIbeZgHQY-15" value="купить домен" style="rounded=1;whiteSpace=wrap;html=1;" vertex="1" parent="1">
          <mxGeometry x="360" y="900" width="120" height="60" as="geometry" />
        </mxCell>
      </root>
    </mxGraphModel>
  </diagram>
</mxfile>
